name kv06_filtered_grf.mot
datacolumns 37
datarows 7
range 0.453000 0.456000
endheader
time	1_ground_force_vx	1_ground_force_vy	1_ground_force_vz	1_ground_force_px	1_ground_force_py	1_ground_force_pz	1_ground_torque_x	1_ground_torque_y	1_ground_torque_z	2_ground_force_vx	2_ground_force_vy	2_ground_force_vz	2_ground_force_px	2_ground_force_py	2_ground_force_pz	2_ground_torque_x	2_ground_torque_y	2_ground_torque_z	3_ground_force_vx	3_ground_force_vy	3_ground_force_vz	3_ground_force_px	3_ground_force_py	3_ground_force_pz	3_ground_torque_x	3_ground_torque_y	3_ground_torque_z	4_ground_force_vx	4_ground_force_vy	4_ground_force_vz	4_ground_force_px	4_ground_force_py	4_ground_force_pz	4_ground_torque_x	4_ground_torque_y	4_ground_torque_z
            0.453000	            0.000010	            0.000473	           -0.000227	            0.450000	            0.000000	            0.900000	           -0.000258	            0.000063	           -0.000020	           -0.000000	           -0.000000	           -0.000000	           -0.205683	            0.000000	            0.253889	           -0.000000	            0.000000	           -0.000000	           -1.290526	          324.472999	           79.636529	            0.385792	            0.966670	            1.073626	           -2.536238	            5.443454	          -18.230757	           -0.796022	          350.387586	           59.228905	           -0.368856	            0.966225	            1.107683	           -1.224761	           -2.125815	           18.476425
            0.453500	            0.000005	            0.000471	           -0.000183	            0.450000	            0.000000	            0.900000	           -0.000261	            0.000064	           -0.000021	           -0.000000	           -0.000000	           -0.000000	           -0.205683	            0.000000	            0.253889	           -0.000000	            0.000000	           -0.000000	           -1.254615	          324.301059	           79.359041	            0.385791	            0.966667	            1.073627	           -2.509831	            5.440564	          -18.247083	           -0.663227	          350.084171	           59.108599	           -0.368858	            0.966227	            1.107680	           -1.197569	           -2.108076	           18.480291
            0.454000	            0.000001	            0.000467	           -0.000140	            0.450000	            0.000000	            0.900000	           -0.000262	            0.000065	           -0.000022	           -0.000000	           -0.000000	           -0.000000	           -0.205683	            0.000000	            0.253889	           -0.000000	            0.000000	           -0.000000	           -1.232199	          324.120869	           79.078485	            0.385790	            0.966664	            1.073629	           -2.483006	            5.436986	          -18.262555	           -0.529372	          349.779048	           58.990050	           -0.368861	            0.966229	            1.107677	           -1.170333	           -2.090437	           18.484520
            0.454500	           -0.000003	            0.000461	           -0.000099	            0.450000	            0.000000	            0.900000	           -0.000262	            0.000066	           -0.000023	           -0.000000	           -0.000000	           -0.000000	           -0.205683	            0.000000	            0.253889	           -0.000000	            0.000000	           -0.000000	           -1.223217	          323.932331	           78.794993	            0.385788	            0.966660	            1.073631	           -2.455763	            5.432721	          -18.277170	           -0.394513	          349.472349	           58.873074	           -0.368863	            0.966232	            1.107674	           -1.143062	           -2.072892	           18.489117
            0.455000	           -0.000006	            0.000453	           -0.000059	            0.450000	            0.000000	            0.900000	           -0.000260	            0.000066	           -0.000024	           -0.000000	           -0.000000	           -0.000000	           -0.205683	            0.000000	            0.253889	           -0.000000	            0.000000	           -0.000000	           -1.227596	          323.735339	           78.508696	            0.385787	            0.966657	            1.073632	           -2.428105	            5.427775	          -18.290924	           -0.258703	          349.164205	           58.757484	           -0.368866	            0.966234	            1.107672	           -1.115769	           -2.055434	           18.494087
            0.455500	           -0.000010	            0.000443	           -0.000022	            0.450000	            0.000000	            0.900000	           -0.000258	            0.000066	           -0.000024	           -0.000000	           -0.000000	           -0.000000	           -0.205683	            0.000000	            0.253889	           -0.000000	            0.000000	           -0.000000	           -1.244821	          323.529188	           78.222192	            0.385790	            0.966655	            1.073632	           -2.400119	            5.422289	          -18.303762	           -0.121888	          348.855036	           58.641366	           -0.368871	            0.966234	            1.107669	           -1.088423	           -2.037963	           18.499445
            0.456000	           -0.000013	            0.000432	            0.000014	            0.450000	            0.000000	            0.900000	           -0.000254	            0.000066	           -0.000025	           -0.000000	           -0.000000	           -0.000000	           -0.205683	            0.000000	            0.253889	           -0.000000	            0.000000	           -0.000000	           -1.275262	          323.314357	           77.933140	            0.385793	            0.966652	            1.073632	           -2.371714	            5.416129	          -18.315735	            0.015784	          348.544684	           58.526243	           -0.368877	            0.966235	            1.107666	           -1.061078	           -2.020562	           18.505182
